# xmcd
#
# Track frame offsets:
#	150
#	16175
#	37325
#	57317
#	73022
#	86600
#	98542
#	124050
#	135467
#	149000
#	164140
#	187642
#	204162
#	218830
#	251032
#	268535
#	291357
#
# Disc length: 4305 seconds
#
# Revision: 0
# Processed by: cddbd v1.4b42PL1 Copyright (c) Steve Scherf et al.
# Submitted via: dBpowerAMP V4.0
#
DISCID=0010cf11
DTITLE=Backsliders - Downtime
DYEAR=1900
DGENRE=Blues
TTITLE0=Statesboro Blues
TTITLE1=Special Rider Blues
TTITLE2=Preaching Blues
TTITLE3=Come On In My Kitchen
TTITLE4=Sweet Jiving Mama
TTITLE5=Red River
TTITLE6=Smokestack Lightning
TTITLE7=Me Creole Belle
TTITLE8=Scottsboro Blues
TTITLE9=Travelling Riverside Blues
TTITLE10=Stop Breaking Down
TTITLE11=Taking a Stroll
TTITLE12=Dehlia
TTITLE13=Kokomo
TTITLE14=Moon Going Down
TTITLE15=I Just Keep On Drinking
TTITLE16=Who Do You Love
EXTD=
EXTT0=
EXTT1=
EXTT2=
EXTT3=
EXTT4=
EXTT5=
EXTT6=
EXTT7=
EXTT8=
EXTT9=
EXTT10=
EXTT11=
EXTT12=
EXTT13=
EXTT14=
EXTT15=
EXTT16=
PLAYORDER=
